<?xml version="1.0" encoding="UTF-8" standalone="no"?>
<svg width="188px" height="188px" viewBox="0 0 188 188" version="1.1" xmlns="http://www.w3.org/2000/svg" xmlns:xlink="http://www.w3.org/1999/xlink" xmlns:sketch="http://www.bohemiancoding.com/sketch/ns">
    <!-- Generator: Sketch 3.4 (15575) - http://www.bohemiancoding.com/sketch -->
    <title>Oval 1 + Oval 1 + Oval 1</title>
    <desc>Created with Sketch.</desc>
    <defs></defs>
    <g id="Page-1" stroke="none" stroke-width="1" fill="none" fill-rule="evenodd" sketch:type="MSPage">
        <g id="Artboard-1" sketch:type="MSArtboardGroup" transform="translate(-451.000000, -264.000000)" stroke="#FFFFFF" stroke-width="9" fill="#343434">
            <g id="Oval-1-+-Oval-1-+-Oval-1" sketch:type="MSLayerGroup" transform="translate(445.000000, 258.000000)">
                <circle id="Oval-1" sketch:type="MSShapeGroup" cx="100" cy="100" r="89"></circle>
                <g id="Oval-1-+-Oval-1" transform="translate(100.409163, 100.409163) rotate(-45.000000) translate(-100.409163, -100.409163) translate(29.409163, 29.409163)" sketch:type="MSShapeGroup">
                    <path d="M71,-8.5442764e-13 C31.7877828,-8.5442764e-13 -2.7000624e-13,31.7877828 -2.7000624e-13,71 C-2.7000624e-13,110.212217 31.7877828,142 71,142 L71,-8.81072992e-13 L71,-8.5442764e-13 Z" id="Oval-1"></path>
                    <path d="M71,-9.37916411e-13 C31.7877828,-9.45119579e-13 -2.4158453e-13,31.7877828 -2.4158453e-13,71 L142,71 C142,31.7877828 110.212217,-9.30713244e-13 71,-9.37916411e-13 Z" id="Oval-1"></path>
                </g>
            </g>
        </g>
    </g>
</svg>